# xmcd
#
# Track frame offsets: 
#        150
#        6640
#        30099
#        51770
#        69618
#        89135
#        108626
#        123003
#        158720
#        180846
#        202842
#        224446
#        235109
#        255339
#        282587
#        314283
#        341897
#
# Disc length: 4795 seconds
#
# Revision: 0
# Processed by: cddbd v1.5.2PL0 Copyright (c) Steve Scherf et al.
# Submitted via: ExactAudioCopy v0.95b3
#
DISCID=ed12b911
DTITLE=Thin Lizzy  - Tower Theatre 1977 Philly Complete Edition   FLAC
DYEAR=1900
DGENRE=
TTITLE0=Introduction
TTITLE1=Soldier of Fortune
TTITLE2=Jailbreak.
TTITLE3=Johnny.
TTITLE4=Warriors
TTITLE5=Dancing In The Moonlight
TTITLE6=Massacre
TTITLE7=Still In Love Wth You
TTITLE8=Cowboy Song
TTITLE9=The Boys Are Back In Town
TTITLE10=Opium Trail
TTITLE11=Don't Believe a Word
TTITLE12=Emerald
TTITLE13=Bad Reputation\\Drum Solo
TTITLE14=Baby Drives Me Crazy
TTITLE15=Me And The Boys
TTITLE16=Are You Ready
EXTD=
EXTT0=
EXTT1=
EXTT2=
EXTT3=
EXTT4=
EXTT5=
EXTT6=
EXTT7=
EXTT8=
EXTT9=
EXTT10=
EXTT11=
EXTT12=
EXTT13=
EXTT14=
EXTT15=
EXTT16=
PLAYORDER=
